<svg xmlns="http://www.w3.org/2000/svg" viewBox="0 0 45.6 39.2"><title>Ресурс 1</title><g id="Слой_2" data-name="Слой 2"><g id="Слой_1-2" data-name="Слой 1"><path d="M44.27,2.11a2.16,2.16,0,0,0-2.36.42l-9.1,8.4V4a4,4,0,0,0-4-4H4A4,4,0,0,0,0,4V22.57A3.84,3.84,0,0,0,3.83,26.4H15.65L10.24,38.06a.8.8,0,0,0,.39,1.06.78.78,0,0,0,.34.07.8.8,0,0,0,.73-.46L16.91,27.5l5.21,11.24a.8.8,0,0,0,.73.46.8.8,0,0,0,.72-1.14L18.16,26.4h10.5a4.14,4.14,0,0,0,4.14-4.14v-6.4l9.05,8.66a2.18,2.18,0,0,0,1.54.64,2.23,2.23,0,0,0,.84-.17,2.2,2.2,0,0,0,1.37-2V4.14a2.18,2.18,0,0,0-1.34-2ZM31.2,22.26a2.54,2.54,0,0,1-2.54,2.54H3.83A2.24,2.24,0,0,1,1.6,22.57V4A2.35,2.35,0,0,1,4,1.6H28.84A2.35,2.35,0,0,1,31.2,4Zm12.8.68a.59.59,0,0,1-.37.57.56.56,0,0,1-.64-.13L33,13.82a.62.62,0,0,1,0-.87L43,3.7a.55.55,0,0,1,.4-.16.58.58,0,0,1,.24.05.59.59,0,0,1,.36.56Zm0,0"/><path d="M14.51,12.58a5.23,5.23,0,1,0-1,1.25L14.63,15a.8.8,0,0,0,1.13-1.13ZM10,13.6a3.61,3.61,0,1,1,3.32-2.21L11.77,9.84A.8.8,0,1,0,10.63,11l1.73,1.73A3.58,3.58,0,0,1,10,13.6Zm0,0"/></g></g></svg>